<?xml version="1.0" standalone="no"?><!DOCTYPE svg PUBLIC "-//W3C//DTD SVG 1.1//EN" "http://www.w3.org/Graphics/SVG/1.1/DTD/svg11.dtd"><svg t="1735788374143" class="icon" viewBox="0 0 1025 1024" version="1.1" xmlns="http://www.w3.org/2000/svg" p-id="5169" xmlns:xlink="http://www.w3.org/1999/xlink" width="32.03125" height="32"><path d="M723.4304 439.296l-11.264 2.56-29.696 7.168c-30.72 6.656-61.44 13.824-90.624 21.504l-36.352 9.728a421.376 421.376 0 0 0-99.328 31.744 118.784 118.784 0 0 0-39.936 153.6l5.632 9.728a105.984 105.984 0 0 0 145.408 33.28A592.384 592.384 0 0 0 666.5984 614.4l8.704-10.24c19.968-23.04 40.448-47.616 60.928-72.192l19.456-24.064c3.584-3.584 7.168-7.168 7.168-8.704a38.912 38.912 0 0 0 7.168-30.72 37.376 37.376 0 0 0-46.592-29.184z m-105.472 116.736l-8.704 9.728a701.44 701.44 0 0 1-80.384 84.992h-4.608a32.768 32.768 0 0 1-42.496-17.408 47.104 47.104 0 0 1 13.824-60.416 486.4 486.4 0 0 1 78.848-25.088l36.352-9.728 25.6-6.144z" p-id="5170"></path><path d="M1024.9984 614.4v-32.256A512 512 0 0 0 512.9984 76.8a512 512 0 0 0-364.032 147.968A497.664 497.664 0 0 0 0.9984 611.328a44.032 44.032 0 0 0 0 8.704 37.376 37.376 0 0 0 3.584 14.848 498.688 498.688 0 0 0 145.92 300.032 36.864 36.864 0 0 0 28.672 10.24 35.84 35.84 0 0 0 30.208-10.24l36.352-35.84a36.352 36.352 0 0 0 0-51.2 37.376 37.376 0 0 0-51.2 0l-13.312 13.312a422.912 422.912 0 0 1-99.84-204.8h29.184a36.352 36.352 0 0 0 36.864-35.84 36.352 36.352 0 0 0-36.864-36.352h-36.352v-4.096a429.568 429.568 0 0 1 102.4-278.016l18.432 17.92a36.352 36.352 0 0 0 51.2 0 35.84 35.84 0 0 0 0-51.2l-18.432-18.432a437.76 437.76 0 0 1 248.832-102.4v73.728a36.352 36.352 0 0 0 72.704 0V146.944a437.76 437.76 0 0 1 248.832 102.4l-18.432 18.432a35.84 35.84 0 0 0 0 51.2 36.352 36.352 0 0 0 51.2 0l18.432-17.92a429.568 429.568 0 0 1 102.4 278.016v4.096h-36.352a36.352 36.352 0 0 0-36.864 36.352 36.352 36.352 0 0 0 36.864 35.84h29.184a422.912 422.912 0 0 1-99.84 204.8l-13.312-13.312a37.376 37.376 0 0 0-51.2 0 36.352 36.352 0 0 0 0 51.2l36.352 35.84a39.936 39.936 0 0 0 16.384 9.216 35.328 35.328 0 0 0 41.984-9.216 497.152 497.152 0 0 0 147.456-300.544 32.768 32.768 0 0 0 3.072-14.336A38.912 38.912 0 0 0 1024.9984 614.4z" p-id="5171"></path></svg>