<?xml version="1.0" standalone="no"?><!DOCTYPE svg PUBLIC "-//W3C//DTD SVG 1.1//EN" "http://www.w3.org/Graphics/SVG/1.1/DTD/svg11.dtd"><svg t="1733204827961" class="icon" viewBox="0 0 1024 1024" version="1.1" xmlns="http://www.w3.org/2000/svg" p-id="5351" xmlns:xlink="http://www.w3.org/1999/xlink" width="32" height="32"><path d="M568.520796 879.724774H450.304091a37.317255 37.317255 0 0 0-35.773719 38.951587c3.087072 36.318496 19.975173 86.256428 87.981557 103.870899a37.317255 37.317255 0 0 0 18.976414 0c68.006384-17.614471 84.985281-67.915588 87.981557-103.870899 1.906721-22.608264-18.068452-38.951587-40.949104-38.951587z" p-id="5352"></path><path d="M899.200704 629.036354a145.273985 145.273985 0 0 0-136.739138-136.194361c8.534847-72.636992 9.079624-142.550098-8.353255-193.940769-25.695336-77.449193-92.339777-161.435716-149.269019-223.267956L585.227304 54.477744 575.875291 45.39812l-17.432878-17.705267-15.344564-14.981379a44.67175 44.67175 0 0 0-62.195425 0L465.557859 27.238872l-8.534846 9.079624-18.250045 18.159248-19.611988 21.155524C362.322534 137.465508 295.587297 221.452031 269.891961 298.628835c-17.342082 51.844653-17.251286 121.757758-9.079624 193.94077a145.273985 145.273985 0 0 0-136.194361 145.273984v205.199504a49.393155 49.393155 0 0 0 7.808477 21.427912 48.485192 48.485192 0 0 0 67.189218 13.437844L339.805066 784.66111l6.174144 6.537329a140.55258 140.55258 0 0 0 99.058699 40.131939H587.678803a139.553822 139.553822 0 0 0 96.334811-46.85086L823.749028 877.908849l4.721404 2.814684a48.394396 48.394396 0 0 0 70.548679-43.128215v-199.751729zM197.254969 792.378791v-154.353609a73.544955 73.544955 0 0 1 74.816102-72.636993q14.436602 77.812378 35.682922 154.353609z m490.299698-289.458415a1528.736301 1528.736301 0 0 1-35.682922 173.239227L642.156547 713.295265a63.557368 63.557368 0 0 1-57.201632 45.39812H445.128705a75.451676 75.451676 0 0 1-9.079624-0.635573 66.372052 66.372052 0 0 1-34.320979-14.527399 59.199149 59.199149 0 0 1-19.702784-29.871963 1573.952829 1573.952829 0 0 1-46.033694-209.739315c-10.713956-77.539989-10.441568-142.186913 2.996276-182.318851 13.891825-42.038659 45.942898-91.885795 85.25767-140.824969a1214.581309 1214.581309 0 0 1 87.799964-96.879589l20.156766 20.610747c23.607023 24.424189 46.12449 49.937932 67.552403 76.268842 39.405568 48.939174 71.456641 98.78631 85.439262 140.824969 13.165455 39.314772 13.437844 103.689307 2.360702 181.320092z m139.190637 289.458415l-110.771414-73.817344q21.155524-75.996453 35.138145-153.627239h2.633091a72.636992 72.636992 0 0 1 72.636993 72.636993z" p-id="5353"></path><path d="M512.045534 298.628835a96.879589 96.879589 0 1 0 0 193.668381 96.879589 96.879589 0 0 0 0-193.668381z m0 121.031388a24.242596 24.242596 0 1 1 24.242597-24.242596 24.1518 24.1518 0 0 1-24.333393 24.242596z" p-id="5354"></path></svg>