<?xml version="1.0" standalone="no"?><!DOCTYPE svg PUBLIC "-//W3C//DTD SVG 1.1//EN" "http://www.w3.org/Graphics/SVG/1.1/DTD/svg11.dtd">
<svg t="1733208137582" class="icon" viewBox="0 0 1024 1024" version="1.1"
  xmlns="http://www.w3.org/2000/svg" p-id="21572"
  xmlns:xlink="http://www.w3.org/1999/xlink" width="32" height="32">
  <path d="M288.368 726.912c-20 0-36.272 15.984-36.272 35.616 0 19.648 16.288 35.632 36.272 35.632h381.008c20 0 36.272-15.984 36.272-35.632 0-19.632-16.288-35.616-36.272-35.616H288.368z m547.84-583.488c-16.976 3.312-28.752 18.848-28.752 35.808v582.864c0 43.296-35.728 78.48-79.872 78.48H243.872c-15.04 0-27.152-11.968-27.152-26.704v-99.824c0-14.56 12.032-26.336 26.8-26.336h344.992c80.864 0 146.4-64.464 146.4-143.92V220.208C734.928 160.48 685.664 112 624.896 112H254.048C193.28 112 144 160.48 144 220.208v593.664C144 868.064 188.672 912 243.792 912h483.792C811.712 912 880 844.96 880 762.08V178.352c0.096-22.24-20.352-39.632-43.792-34.912z" p-id="21573"></path>
</svg>