<?xml version="1.0" standalone="no"?><!DOCTYPE svg PUBLIC "-//W3C//DTD SVG 1.1//EN" "http://www.w3.org/Graphics/SVG/1.1/DTD/svg11.dtd">
<svg t="1733208011779" class="icon" viewBox="0 0 1122 1024" version="1.1"
  xmlns="http://www.w3.org/2000/svg" p-id="9380"
  xmlns:xlink="http://www.w3.org/1999/xlink" width="35.0625" height="32">
  <path d="M714.556 390.209h356.956c28.382 0 51.395 21.786 51.395 48.717v536.345c0 26.915-22.965 48.719-51.395 48.719H459.728c-28.253 0.112-51.265-21.675-51.378-48.67V633.99H51.394C23.124 634.086 0.113 612.283 0 585.287V48.927C0 21.964 22.963 0.161 51.394 0.161h611.785c28.43 0 51.378 21.803 51.378 48.717v341.33zM51.039 585.287c0-0.064 612.14-0.064 612.14-0.064 0.353 0 0.353-536.344 0.353-536.344 0 0.048-612.138 0.048-612.138 0.048-0.355 0-0.355 536.36-0.355 536.36m699.286-14.69L638.02 849.1h47.363l27.35-71.78H838.1l27.35 71.78h47.782L800.945 570.598h-50.62zM726.231 742.23l48.572-125.979h1.629l48.201 125.979h-98.402zM337.281 117.56h40.01v67.488h145.378V373.42h-38.8v-22.223h-106.58V481.87h-40.01V351.198H231.122v22.223h-38.8V185.049H337.28V117.56zM231.122 314.946h106.159v-93.628H231.122v93.628z m146.168 0h106.58v-93.628H377.29v93.628z" p-id="9381"></path>
</svg>