<?xml version="1.0" standalone="no"?><!DOCTYPE svg PUBLIC "-//W3C//DTD SVG 1.1//EN" "http://www.w3.org/Graphics/SVG/1.1/DTD/svg11.dtd">
<svg t="1733208196204" class="icon" viewBox="0 0 1024 1024" version="1.1"
  xmlns="http://www.w3.org/2000/svg" p-id="24677"
  xmlns:xlink="http://www.w3.org/1999/xlink" width="32" height="32">
  <path d="M250.481778 181.475556l-13.198222-13.312a46.421333 46.421333 0 0 0-65.962667 0 47.274667 47.274667 0 0 0 0 66.56l13.226667 13.312a46.421333 46.421333 0 0 0 65.934222 0 47.274667 47.274667 0 0 0 0-66.56zM115.968 467.626667H72.789333a44.373333 44.373333 0 0 0 0 88.689777h43.178667a44.373333 44.373333 0 1 0 0-88.689777zM512 28.444444c-24.263111 0-43.946667 19.683556-43.946667 43.946667v40.704a43.946667 43.946667 0 0 0 87.893334 0V72.391111C555.946667 48.128 536.263111 28.444444 512 28.444444z m340.679111 139.719112a46.421333 46.421333 0 0 0-65.962667 0l-15.36 15.530666c-17.066667 17.208889-17.066667 44.942222 0 62.122667a45.795556 45.795556 0 0 0 63.203556 1.763555l16.327111-14.734222a44.714667 44.714667 0 0 0 1.792-64.682666z m-81.351111 672.142222l17.578667 17.692444a43.406222 43.406222 0 0 0 61.610666 0c17.066667-17.152 17.066667-44.885333 0-62.065778l-17.607111-17.749333a43.349333 43.349333 0 0 0-61.582222 0 44.088889 44.088889 0 0 0 0 62.122667z m136.704-283.989334h43.178667a44.373333 44.373333 0 1 0 0-88.689777h-43.178667a44.373333 44.373333 0 0 0 0 88.689777zM512 245.76c-145.066667 0-263.736889 119.836444-263.736889 266.183111 0 146.403556 118.670222 266.183111 263.736889 266.183111 145.066667 0 263.765333-119.779556 263.765333-266.183111 0-146.346667-118.698667-266.183111-263.765333-266.183111M512 995.555556c24.263111 0 43.946667-19.683556 43.946667-43.946667v-40.789333a43.946667 43.946667 0 0 0-87.893334 0v40.789333c0 24.263111 19.683556 43.946667 43.946667 43.946667zM171.320889 855.779556a46.421333 46.421333 0 0 0 65.962667 0l15.36-15.502223c17.066667-17.180444 17.066667-44.885333 0.056888-62.094222a45.795556 45.795556 0 0 0-63.203555-1.792l-16.355556 14.734222a44.686222 44.686222 0 0 0-1.820444 64.654223z" p-id="24678"></path>
</svg>