<?xml version="1.0" standalone="no"?><!DOCTYPE svg PUBLIC "-//W3C//DTD SVG 1.1//EN" "http://www.w3.org/Graphics/SVG/1.1/DTD/svg11.dtd"><svg t="1705651792248" class="icon" viewBox="0 0 1024 1024" version="1.1" xmlns="http://www.w3.org/2000/svg" p-id="4276" width="16" height="16" xmlns:xlink="http://www.w3.org/1999/xlink"><path d="M960.620725 848.835765H279.118607a127.096471 127.096471 0 0 0-122.88-94.750118c-70.113882 0-127.036235 56.621176-127.036235 126.313412s56.922353 126.373647 126.976 126.373647c59.030588 0 108.845176-40.357647 122.940235-94.750118h681.502118a31.683765 31.683765 0 1 0 0-63.247059zM156.178372 943.585882c-34.996706 0-63.488-28.310588-63.488-63.186823 0-34.816 28.491294-63.186824 63.488-63.186824 35.056941 0 63.488 28.310588 63.488 63.186824 0 34.816-28.431059 63.186824-63.488 63.186823zM961.223078 493.327059h-97.882353a127.096471 127.096471 0 0 0-245.880471 0H65.102607a31.683765 31.683765 0 0 0-31.804235 31.563294c0 17.468235 14.215529 31.563294 31.744 31.563294h552.357647a127.096471 127.096471 0 0 0 245.940706 0h97.882353a31.623529 31.623529 0 1 0 0-63.126588z m-220.822589 94.750117c-34.996706 0-63.488-28.310588-63.488-63.247058 0-34.816 28.491294-63.126588 63.488-63.126589 34.996706 0 63.488 28.310588 63.488 63.186824 0 34.816-28.491294 63.186824-63.488 63.186823zM156.178372 295.695059c59.030588 0 108.845176-40.357647 122.940235-94.750118h681.502118a31.623529 31.623529 0 1 0 0-63.186823H279.118607A127.096471 127.096471 0 0 0 29.202372 169.381647c0 69.632 56.922353 126.313412 126.976 126.313412z m0-189.500235c35.056941 0 63.488 28.310588 63.488 63.186823 0 34.816-28.431059 63.126588-63.488 63.126588-34.996706 0-63.488-28.310588-63.488-63.126588 0-34.936471 28.491294-63.247059 63.488-63.247059z" fill="#ffffff" p-id="4277"></path></svg>